<svg xmlns="http://www.w3.org/2000/svg" width="32" height="32" viewBox="0 0 32 32">
  <g id="Group_45309" data-name="Group 45309" transform="translate(-1197 -449)">
    <g id="Group_47928" data-name="Group 47928">
      <circle id="Ellipse_3000" data-name="Ellipse 3000" cx="16" cy="16" r="16" transform="translate(1197 449)" fill="rgba(0,0,0,0.87)"/>
      <path id="Icon_awesome-instagram" data-name="Icon awesome-instagram" d="M9.5,6.865a4.87,4.87,0,1,0,4.87,4.87A4.863,4.863,0,0,0,9.5,6.865Zm0,8.037a3.166,3.166,0,1,1,3.166-3.166A3.172,3.172,0,0,1,9.5,14.9ZM15.7,6.666A1.136,1.136,0,1,1,14.566,5.53,1.133,1.133,0,0,1,15.7,6.666Zm3.226,1.153a5.622,5.622,0,0,0-1.534-3.98A5.659,5.659,0,0,0,13.413,2.3c-1.568-.089-6.269-.089-7.837,0A5.65,5.65,0,0,0,1.6,3.835,5.64,5.64,0,0,0,.061,7.815c-.089,1.568-.089,6.269,0,7.837A5.622,5.622,0,0,0,1.6,19.632a5.666,5.666,0,0,0,3.98,1.534c1.568.089,6.269.089,7.837,0a5.622,5.622,0,0,0,3.98-1.534,5.659,5.659,0,0,0,1.534-3.98c.089-1.568.089-6.265,0-7.833ZM16.9,17.335A3.206,3.206,0,0,1,15.1,19.141c-1.25.5-4.218.381-5.6.381s-4.353.11-5.6-.381a3.206,3.206,0,0,1-1.806-1.806c-.5-1.25-.381-4.218-.381-5.6s-.11-4.353.381-5.6A3.206,3.206,0,0,1,3.9,4.331c1.25-.5,4.218-.381,5.6-.381s4.353-.11,5.6.381A3.206,3.206,0,0,1,16.9,6.136c.5,1.25.381,4.218.381,5.6S17.4,16.089,16.9,17.335Z" transform="translate(1203.504 453.262)" fill="#fff"/>
    </g>
  </g>
</svg>
