<svg xmlns="http://www.w3.org/2000/svg" width="32" height="32" viewBox="0 0 32 32">
  <path id="svg69" d="M16,0A16,16,0,1,1,0,16,16.018,16.018,0,0,1,16,0Zm4.539,6.4h-3.5a3.6,3.6,0,0,0-3.722,3.458V12.6H11.46a.252.252,0,0,0-.26.242v2.843a.251.251,0,0,0,.26.241h1.855v9.434a.252.252,0,0,0,.26.242h3.71a.251.251,0,0,0,.26-.242V15.924h2.69a.252.252,0,0,0,.259-.221l.259-2.843a.25.25,0,0,0-.26-.262H17.545V10.582a.891.891,0,0,1,.921-.856h2.072a.252.252,0,0,0,.261-.242V6.642A.252.252,0,0,0,20.539,6.4Z" fill="rgba(0,0,0,0.87)"/>
</svg>
