<svg xmlns="http://www.w3.org/2000/svg" width="32" height="32" viewBox="0 0 32 32">
  <path id="Path_42651" data-name="Path 42651" d="M12166,8072a16.1,16.1,0,0,1-3.225-.325,15.994,15.994,0,0,1-8.089-4.361,16.1,16.1,0,0,1-1.954-2.368,15.942,15.942,0,0,1-2.407-5.721,16.15,16.15,0,0,1,0-6.449,15.932,15.932,0,0,1,2.407-5.721,16.05,16.05,0,0,1,7.04-5.8,15.9,15.9,0,0,1,3-.933,16.15,16.15,0,0,1,6.449,0,15.924,15.924,0,0,1,5.721,2.408,16.035,16.035,0,0,1,5.8,7.04,15.851,15.851,0,0,1,.933,3,16.15,16.15,0,0,1,0,6.449,15.942,15.942,0,0,1-2.407,5.721A15.97,15.97,0,0,1,12166,8072Zm-8.824-9.3h0a10.652,10.652,0,0,0,2.766,1.286,10.863,10.863,0,0,0,3.131.458,11.109,11.109,0,0,0,4.708-1,10.292,10.292,0,0,0,1.883-1.131,10.612,10.612,0,0,0,1.558-1.448,11.192,11.192,0,0,0,1.226-1.687,11.675,11.675,0,0,0,.885-1.848,11.438,11.438,0,0,0,.536-1.93,10.644,10.644,0,0,0,.181-1.935c0-.166,0-.336-.008-.5a7.91,7.91,0,0,0,1.928-2,7.818,7.818,0,0,1-2.216.608,3.86,3.86,0,0,0,1.7-2.136,7.823,7.823,0,0,1-2.448.936,3.851,3.851,0,0,0-1.255-.89,3.857,3.857,0,0,0-5.417,3.53,3.57,3.57,0,0,0,.1.88,10.92,10.92,0,0,1-6.357-2.438,11.1,11.1,0,0,1-1.594-1.593,3.848,3.848,0,0,0,1.2,5.144,3.725,3.725,0,0,1-.914-.138,3.886,3.886,0,0,1-.829-.342v.048a3.866,3.866,0,0,0,3.1,3.784,3.84,3.84,0,0,1-1.017.136,3.691,3.691,0,0,1-.728-.072,3.793,3.793,0,0,0,.531,1.062,3.846,3.846,0,0,0,3.068,1.618,7.75,7.75,0,0,1-4.792,1.647A7,7,0,0,1,12157.176,8062.7Z" transform="translate(-12150 -8039.999)" fill="rgba(0,0,0,0.87)"/>
</svg>
