<svg xmlns="http://www.w3.org/2000/svg" width="32" height="32" viewBox="0 0 32 32">
  <path id="svg71" d="M16,0A16,16,0,1,1,0,16,16.018,16.018,0,0,1,16,0Zm6.325,13.068c-.448-3.6-3.692-5.435-7.149-5.007a6.546,6.546,0,0,0-5.57,6.287c-.061,1.832.333,3.272,1.6,3.929a.7.7,0,0,0,1-.619c.084-.867-.58-1.269-.708-2.146-.673-4.614,4.806-7.764,7.673-4.541,1.984,2.232.678,9.1-2.522,8.383-3.065-.682,1.5-6.147-.947-7.219-1.988-.871-3.045,2.666-2.1,4.424-.5,2.713-1.507,5.286-1.36,8.526a.486.486,0,0,0,.881.307,13.071,13.071,0,0,0,1.739-5.34c.786.528,1.207,1.079,2.208,1.164C20.764,21.533,22.829,17.132,22.325,13.068Z" fill="rgba(0,0,0,0.87)"/>
</svg>
