<svg xmlns="http://www.w3.org/2000/svg" width="48" height="48" viewBox="0 0 48 48">
  <g id="Siren_logo" data-name="Siren logo" transform="translate(-40 -24)">
    <circle id="Logo_Bg_White" data-name="Logo Bg White" cx="24" cy="24" r="24" transform="translate(40 24)" fill="#fff"/>
    <path id="Logo_Green" data-name="Logo Green" d="M26.414,10.38a14.14,14.14,0,0,0-4.829,0c-.121.022-.167-.1-.075-.165S24,8.322,24,8.322s2.406,1.832,2.489,1.893.046.187-.075.165M22.258,22.27a.276.276,0,0,0-.161.158c.5.388.851,1.269,1.9,1.269s1.4-.881,1.9-1.269a.276.276,0,0,0-.16-.158A8.364,8.364,0,0,1,24,22.425a8.362,8.362,0,0,1-1.742-.155M24,20.786c-.292,0-.357-.111-.555-.109a.987.987,0,0,0-.638.29.3.3,0,0,0,.082.189c.426.064.618.3,1.111.3s.686-.237,1.111-.3a.308.308,0,0,0,.082-.189.988.988,0,0,0-.638-.29c-.2,0-.264.109-.555.109m23.973,4.54q-.045.861-.152,1.706c-2.717.45-3.689-1.972-6.473-1.85a17.238,17.238,0,0,1,.405,1.807c2.3,0,3.222,2.145,5.775,1.829-.133.657-.3,1.3-.481,1.941-2.02.2-2.731-1.808-5.069-1.754q.029.5.029,1.008c0,.188,0,.375-.009.562,1.993-.024,2.641,1.819,4.54,1.732q-.357.968-.794,1.895c-1.365-.075-1.835-1.825-3.911-1.686q-.093.674-.237,1.33c1.8-.126,2.192,1.534,3.483,1.667q-.493.9-1.06,1.755c-.766-.409-1.429-1.646-2.879-1.723.148-.458.279-.924.39-1.4a6.015,6.015,0,0,1-3.993-1.626c.4-2.278-3.136-4.6-3.136-6.266,0-1.811.916-2.814.916-5.256a7.647,7.647,0,0,0-2.207-5.123,4.483,4.483,0,0,0-.823-.662,8.571,8.571,0,0,1,2.157,5.372c0,2.3-1.071,3.514-1.071,5.637s3.106,3.961,3.106,6.148A6.884,6.884,0,0,1,35.3,35.724a7.01,7.01,0,0,0,4.381,2.152.675.675,0,0,0,.721-.414q.175-.386.333-.782c1.262.049,1.84,1.2,2.538,1.655q-.574.771-1.208,1.493a4.568,4.568,0,0,0-2.019-1.634q-.247.482-.523.946a3.889,3.889,0,0,1,1.756,1.542q-.679.7-1.414,1.351a4.654,4.654,0,0,0-1.32-1.408c-.2.267-.4.527-.615.782a4.161,4.161,0,0,1,1.117,1.313q-.848.684-1.759,1.29c-.3-2.438-3.628-4.109-2.731-6.939a3.692,3.692,0,0,0-.645,1.873c0,2.049,2.181,3.674,2.355,5.709q-.678.4-1.386.766c-.078-2.237-2.389-4.684-2.389-6.521,0-2.049,2.685-4.108,2.685-6.528s-3.1-4.1-3.1-6.222S33.4,22.8,33.4,20.078a7.268,7.268,0,0,0-2.411-5.3,3.947,3.947,0,0,0-.82-.57,7.845,7.845,0,0,1,2.18,5.438c0,2.56-1.508,3.981-1.508,6.488s3.038,3.9,3.038,6.238-2.828,4.307-2.828,6.708c0,2.183,2.493,4.365,2.53,6.955q-.818.356-1.666.652c.317-2.618-2.489-5.318-2.489-7.454,0-2.336,2.934-4.342,2.934-6.861s-2.983-3.69-2.983-6.275S31.2,22.078,31.2,19.223a6.959,6.959,0,0,0-2.7-5.468l-.1-.076c-.152-.112-.276.023-.169.157a7.336,7.336,0,0,1,1.744,4.979c0,2.612-2.1,4.734-2.1,7.265,0,2.986,2.824,3.84,2.824,6.29s-3.028,4.409-3.028,7.011c0,2.412,2.866,5.089,2.374,7.874q-.862.223-1.748.383c.538-3.466-2.273-5.956-2.273-8.224,0-2.457,3.136-4.645,3.136-7.044,0-2.262-2.252-3-2.546-5.317a.543.543,0,0,0-.644-.492A7.647,7.647,0,0,1,24,26.945a7.642,7.642,0,0,1-1.964-.385.543.543,0,0,0-.644.492c-.295,2.315-2.547,3.055-2.547,5.317,0,2.4,3.136,4.587,3.136,7.044,0,2.267-2.81,4.757-2.273,8.224q-.886-.16-1.748-.383c-.492-2.784,2.373-5.462,2.373-7.874,0-2.6-3.028-4.561-3.028-7.011s2.824-3.3,2.824-6.29c0-2.531-2.1-4.654-2.1-7.265a7.34,7.34,0,0,1,1.744-4.979c.107-.133-.017-.268-.169-.157l-.1.076a6.96,6.96,0,0,0-2.7,5.468c0,2.855,1.831,4.287,1.831,6.871s-2.983,3.757-2.983,6.275,2.935,4.525,2.935,6.861c0,2.136-2.807,4.836-2.49,7.454q-.848-.3-1.666-.652c.037-2.59,2.53-4.773,2.53-6.955,0-2.4-2.828-4.371-2.828-6.708s3.038-3.73,3.038-6.238-1.508-3.928-1.508-6.488a7.843,7.843,0,0,1,2.18-5.438,3.962,3.962,0,0,0-.821.57,7.268,7.268,0,0,0-2.411,5.3c0,2.723,1.318,3.945,1.318,6.069s-3.1,3.8-3.1,6.222,2.685,4.479,2.685,6.528c0,1.837-2.311,4.284-2.389,6.521q-.708-.359-1.386-.765c.174-2.036,2.356-3.661,2.356-5.71a3.688,3.688,0,0,0-.646-1.873c.9,2.83-2.431,4.5-2.731,6.939Q9.8,43.4,8.954,42.72a4.185,4.185,0,0,1,1.118-1.313q-.318-.381-.615-.782a4.652,4.652,0,0,0-1.319,1.408q-.734-.647-1.414-1.351A3.886,3.886,0,0,1,8.48,39.14q-.276-.464-.523-.946a4.568,4.568,0,0,0-2.019,1.634Q5.3,39.106,4.73,38.335c.7-.458,1.277-1.606,2.538-1.655q.159.4.333.782a.675.675,0,0,0,.721.414A7.01,7.01,0,0,0,12.7,35.724a6.879,6.879,0,0,1-1.182-3.354c0-2.188,3.105-4.026,3.105-6.148s-1.071-3.337-1.071-5.637a8.569,8.569,0,0,1,2.157-5.372,4.438,4.438,0,0,0-.823.662A7.647,7.647,0,0,0,12.682,21c0,2.443.916,3.445.916,5.256,0,1.669-3.535,3.987-3.136,6.266a6.013,6.013,0,0,1-3.993,1.626q.167.71.389,1.4c-1.45.077-2.113,1.314-2.879,1.723q-.566-.853-1.06-1.755C4.211,35.379,4.6,33.719,6.4,33.845q-.143-.657-.237-1.33C4.091,32.376,3.62,34.126,2.255,34.2q-.435-.926-.793-1.895c1.9.087,2.547-1.756,4.54-1.732-.006-.186-.01-.374-.01-.562,0-.339.011-.675.029-1.008C3.684,28.95,2.973,30.958.953,30.758Q.673,29.8.471,28.817c2.553.316,3.478-1.831,5.775-1.829a17.237,17.237,0,0,1,.405-1.807c-2.784-.121-3.757,2.3-6.473,1.85q-.106-.844-.153-1.706c3.159.354,4.344-2.244,7.219-1.926a16.968,16.968,0,0,1,.942-1.992C4.58,20.774,3.357,23.789,0,23.325a24.01,24.01,0,0,1,48,0c-3.357.464-4.581-2.552-8.187-1.918a16.969,16.969,0,0,1,.942,1.992c2.875-.317,4.06,2.281,7.219,1.926M13.679,15.257a6.248,6.248,0,0,0-5.736.618,6.264,6.264,0,0,0-2.52-4.123.216.216,0,0,0-.354.2C5.346,15.55,3.246,18.67.663,21.413c2.662.8,4.929-2.628,8.381-1.431a18.118,18.118,0,0,1,4.634-4.725M24,13.083a4.655,4.655,0,0,0-4.585,2.89c-.037.125.014.205.158.141a3.293,3.293,0,0,1,1.353-.267,2.781,2.781,0,0,1,2.184.915,3.9,3.9,0,0,1-.009,2.264c-.374-.084-.509-.374-.875-.374s-.649.257-1.269.257-.693-.293-1.1-.293c-.479,0-.568.494-.568,1.051,0,2.483,2.282,5.9,4.71,5.9s4.71-3.418,4.71-5.9c0-.558-.115-1.034-.616-1.1a1.513,1.513,0,0,1-1.052.341c-.62,0-.791-.257-1.157-.257-.44,0-.4.93-.92.982a4.409,4.409,0,0,1-.076-2.872,2.78,2.78,0,0,1,2.184-.915,3.279,3.279,0,0,1,1.353.267c.144.065.2-.016.158-.141A4.655,4.655,0,0,0,24,13.083m3.549,3.563a2.105,2.105,0,0,0-1.556.6.609.609,0,0,0,.018.416c.969-.332,1.825-.345,2.237.117a.745.745,0,0,0,.291-.589c0-.323-.327-.546-.989-.546m-7.8,1.135a2.482,2.482,0,0,1,2.476-.07c.044-.51-.866-1.065-1.778-1.065-.662,0-.989.223-.989.546a.744.744,0,0,0,.29.589m15.36-8.407a7.923,7.923,0,0,0-4.525,1.737,17.82,17.82,0,0,1,2.036-4.054,8.733,8.733,0,0,0-5.48,2.457L26.075,6.71l2.375-2.1-3.18-.225L24,1.43,22.731,4.388l-3.18.225,2.375,2.1-1.07,2.805a8.733,8.733,0,0,0-5.48-2.457,17.856,17.856,0,0,1,2.036,4.054,7.923,7.923,0,0,0-4.525-1.737,21.281,21.281,0,0,1,2.685,4.359.291.291,0,0,0,.428.143,18.037,18.037,0,0,1,16,0,.291.291,0,0,0,.428-.143,21.3,21.3,0,0,1,2.685-4.359m3.843,10.607c3.453-1.2,5.719,2.231,8.382,1.431-2.583-2.743-4.684-5.863-4.406-9.456a.216.216,0,0,0-.354-.2,6.261,6.261,0,0,0-2.52,4.123,6.248,6.248,0,0,0-5.736-.618,18.111,18.111,0,0,1,4.634,4.725" transform="translate(40 24)" fill="#006241"/>
    <path id="TM" d="M2.815-3.54H.055v.39h1.17V0h.42V-3.15h1.17ZM3.31,0h.42V-2.97h.01L5.01,0h.255l1.27-2.97h.01V0h.42V-3.54h-.61L5.145-.765h-.01L3.935-3.54H3.31Z" transform="translate(79 72)" fill="#006241"/>
  </g>
</svg>
