<svg xmlns="http://www.w3.org/2000/svg" width="39" height="48.281" viewBox="0 0 39 48.281">
  <g id="R_logo" transform="translate(0 0.001)">
    <rect id="Rectangle_30324" data-name="Rectangle 30324" width="39" height="1.537" transform="translate(0 23.106)" fill="#070203"/>
    <path id="Path_43395" data-name="Path 43395" d="M362.636,820.756v-.046a4.3,4.3,0,0,0-1.2-3.063,6.131,6.131,0,0,0-4.418-1.548h-6.671v15.524H352.1v-6.034h4.438l4.505,6.034h2.145l-4.768-6.35c2.443-.438,4.218-1.944,4.218-4.518M352.1,824.017v-6.3h4.794c2.5,0,3.97,1.146,3.97,3.053v.048c0,2-1.664,3.2-3.992,3.2Z" transform="translate(-336.437 -783.692)" fill="#070203"/>
    <path id="Path_43396" data-name="Path 43396" d="M278.625,16.292l5.291-3.682,5.294,3.682-1.864-6.171,5.137-3.9-6.447-.129L283.916,0,281.8,6.093l-6.449.129,5.14,3.9Z" transform="translate(-264.417)" fill="#070203"/>
    <path id="Path_43397" data-name="Path 43397" d="M755.331,1151.472a.5.5,0,0,0-.156-.1.569.569,0,0,0,.381-.167.49.49,0,0,0,.144-.351.471.471,0,0,0-.086-.269.453.453,0,0,0-.231-.177,1.538,1.538,0,0,0-.468-.051h-.631v1.837h.3v-.78h.174a.381.381,0,0,1,.238.063,1.482,1.482,0,0,1,.31.427l.163.29h.362l-.224-.36a2.106,2.106,0,0,0-.271-.364m-.391-.31h-.36v-.554h.337a.931.931,0,0,1,.3.032.268.268,0,0,1,.126.1.247.247,0,0,1,.045.146.25.25,0,0,1-.094.2.58.58,0,0,1-.352.077" transform="translate(-724.331 -1104.679)" fill="#070203"/>
    <path id="Path_43398" data-name="Path 43398" d="M732.679,1130.073a1.707,1.707,0,0,0-1.678,0,1.575,1.575,0,0,0-.639.631,1.707,1.707,0,0,0,0,1.7,1.6,1.6,0,0,0,.632.632,1.716,1.716,0,0,0,1.7,0,1.589,1.589,0,0,0,.631-.632,1.715,1.715,0,0,0,0-1.7,1.568,1.568,0,0,0-.638-.631m.4,2.194a1.331,1.331,0,0,1-.527.527,1.422,1.422,0,0,1-1.416,0,1.34,1.34,0,0,1-.528-.527,1.419,1.419,0,0,1,0-1.421,1.324,1.324,0,0,1,.533-.527,1.42,1.42,0,0,1,1.4,0,1.314,1.314,0,0,1,.533.527,1.426,1.426,0,0,1,0,1.421" transform="translate(-701.138 -1084.987)" fill="#070203"/>
  </g>
</svg>
