<svg id="STORIES_logo" data-name="STORIES logo" xmlns="http://www.w3.org/2000/svg" width="94" height="37.767" viewBox="0 0 94 37.767">
  <path id="Path_43400" data-name="Path 43400" d="M53.53,5.606A1.591,1.591,0,0,0,55.318,4c0-1.727-2.515-1.6-2.515-2.53a.64.64,0,0,1,.72-.6,1.512,1.512,0,0,1,1.121.629l.546-.576a1.779,1.779,0,0,0-1.72-.864,1.513,1.513,0,0,0-1.674,1.485c0,1.78,2.462,1.583,2.462,2.6,0,.386-.311.644-.8.644a1.721,1.721,0,0,1-1.371-.8l-.545.583A2.122,2.122,0,0,0,53.53,5.606M63.348.114H59.605V.97h1.371V5.492h1V.97h1.371ZM71.3,5.492h1.106L70.507.114H69.393l-1.9,5.379h1l.455-1.371h1.9ZM69.181,3.417l.727-2.167.712,2.167ZM79.84,5.492h1.182L79.628,3.424A1.612,1.612,0,0,0,80.893,1.75c0-1.144-.8-1.636-2.008-1.636H76.969V5.492h1.008V3.515h.6ZM77.977.962h.765c.667,0,1.061.265,1.061.894s-.379.924-1.061.924h-.765ZM88.522,2.735a1.157,1.157,0,0,0,.864-1.2c0-.992-.765-1.424-1.849-1.424h-1.81V5.492H87.75c1.136,0,1.879-.507,1.879-1.515a1.193,1.193,0,0,0-1.106-1.242M87.431.909c.538,0,.894.22.894.765s-.356.757-.894.757h-.7V.909Zm.2,3.788h-.9V3.114h.9c.523,0,.909.25.909.788s-.379.788-.909.8m8.811.909a1.929,1.929,0,0,0,2.129-2.121V.114H97.56V3.371c0,.856-.424,1.311-1.114,1.311-.659,0-1.076-.455-1.076-1.311V.114H94.355V3.485a1.918,1.918,0,0,0,2.091,2.121m9.462,0a2.5,2.5,0,0,0,1.833-.652l-.3-.886a1.889,1.889,0,0,1-1.416.568,1.668,1.668,0,0,1-1.667-1.849A1.675,1.675,0,0,1,106.007.947a1.856,1.856,0,0,1,1.288.485l.3-.894A2.689,2.689,0,0,0,105.878,0,2.564,2.564,0,0,0,103.3,2.8a2.574,2.574,0,0,0,2.606,2.8m9.47-.114h1.235L114.575,2.53,116.462.114H115.3l-1.917,2.53V.114h-1.008V5.492h1.008V3.962l.492-.621Zm7.288.114A1.591,1.591,0,0,0,124.454,4c0-1.727-2.515-1.6-2.515-2.53a.64.64,0,0,1,.72-.6,1.512,1.512,0,0,1,1.121.629l.545-.576a1.779,1.779,0,0,0-1.72-.864,1.513,1.513,0,0,0-1.674,1.485c0,1.78,2.462,1.583,2.462,2.6,0,.386-.311.644-.8.644a1.721,1.721,0,0,1-1.371-.8l-.545.583a2.122,2.122,0,0,0,1.985,1.038M127.314.151A1.031,1.031,0,0,0,126.269,1.2a1.045,1.045,0,1,0,2.09,0A1.031,1.031,0,0,0,127.314.151m0,1.92a.816.816,0,0,1-.831-.868.832.832,0,1,1,1.663,0,.816.816,0,0,1-.831.868m.412-1.052c0-.206-.147-.3-.368-.3h-.39v.957h.228V1.342h.1l.191.331h.265l-.243-.353a.3.3,0,0,0,.221-.3M127.2.9h.11c.11,0,.169.044.169.14a.151.151,0,0,1-.169.155h-.11Z" transform="translate(-40.709)" fill="rgba(0,0,0,0.87)"/>
  <path id="Path_43401" data-name="Path 43401" d="M5.353,68.508c2.717,0,4.822-1.471,4.822-4.331,0-4.658-6.783-4.311-6.783-6.824a1.726,1.726,0,0,1,1.941-1.614,4.078,4.078,0,0,1,3.024,1.7l1.471-1.553c-.858-1.553-2.37-2.329-4.638-2.329-2.411,0-4.515,1.389-4.515,4,0,4.8,6.64,4.27,6.64,7.008,0,1.042-.838,1.736-2.145,1.736a4.639,4.639,0,0,1-3.7-2.166L0,65.709a5.722,5.722,0,0,0,5.353,2.8M23.781,53.7H13.688V56h3.7V68.2h2.7V56h3.7ZM34.487,68.508a7.564,7.564,0,1,0-7.294-7.559,7.272,7.272,0,0,0,7.294,7.559m0-2.513c-2.207,0-4.413-1.655-4.413-5.046S32.28,55.9,34.487,55.9s4.433,1.655,4.433,5.046-2.227,5.046-4.433,5.046M54.672,68.2h3.187L54.1,62.624a4.346,4.346,0,0,0,3.412-4.515c0-3.085-2.166-4.413-5.414-4.413H46.929V68.2h2.717V62.869H51.26ZM49.646,55.984h2.064c1.8,0,2.86.715,2.86,2.411,0,1.675-1.022,2.493-2.86,2.493H49.646ZM62.905,68.2h2.717V53.7H62.905ZM79.76,55.984V53.7H71.67V68.2H79.76V65.913H74.387V61.786H79V59.641H74.387V55.984Zm9.418,12.524C91.9,68.508,94,67.037,94,64.176c0-4.658-6.783-4.311-6.783-6.824a1.726,1.726,0,0,1,1.941-1.614,4.078,4.078,0,0,1,3.024,1.7l1.471-1.553c-.858-1.553-2.37-2.329-4.638-2.329-2.411,0-4.515,1.389-4.515,4,0,4.8,6.64,4.27,6.64,7.008,0,1.042-.838,1.736-2.145,1.736a4.639,4.639,0,0,1-3.7-2.166l-1.471,1.573a5.722,5.722,0,0,0,5.353,2.8" transform="translate(0 -42.165)" fill="rgba(0,0,0,0.87)"/>
  <path id="Path_43402" data-name="Path 43402" d="M127.719,158.175l.079-.912a3.388,3.388,0,0,0,.579.056c.611,0,.841-.333.841-1.142v-3.608h1.055v3.814c0,1.411-.666,1.879-1.729,1.879a3.617,3.617,0,0,1-.825-.087" transform="translate(-100.869 -120.495)" fill="rgba(0,0,0,0.87)"/>
  <path id="Path_43403" data-name="Path 43403" d="M162.007,156.764h-1.99l-.476,1.435h-1.047l1.99-5.63h1.166l1.99,5.63h-1.157Zm-.238-.737-.745-2.268-.761,2.268Z" transform="translate(-125.175 -120.495)" fill="rgba(0,0,0,0.87)"/>
  <path id="Path_43404" data-name="Path 43404" d="M206.119,154.456a1.926,1.926,0,0,1-2.1,2.046h-.833v1.7H202.13v-5.63h1.887c1.269,0,2.1.6,2.1,1.887m-1.134.1a1.028,1.028,0,0,0-1.158-1.11h-.642v2.244h.642a1.039,1.039,0,0,0,1.158-1.134" transform="translate(-159.637 -120.495)" fill="rgba(0,0,0,0.87)"/>
  <path id="Path_43405" data-name="Path 43405" d="M240.114,156.764h-1.99l-.476,1.435H236.6l1.99-5.63h1.166l1.99,5.63H240.59Zm-.238-.737-.745-2.268-.761,2.268Z" transform="translate(-186.861 -120.495)" fill="rgba(0,0,0,0.87)"/>
  <path id="Path_43406" data-name="Path 43406" d="M284.8,152.569v5.63h-1.047l-2.545-3.957V158.2h-.975v-5.63h1.094l2.506,3.7v-3.7Z" transform="translate(-221.323 -120.495)" fill="rgba(0,0,0,0.87)"/>
</svg>
